<svg xmlns="http://www.w3.org/2000/svg" width="100px" height="100px" viewBox="0 0 100 100" fill="none">
  <g stroke-width="17px" fill="none">
    <path d="M 50 66 A 16 16 0 0 1 38.91 61.53" stroke="#cb0381"/>
    <path d="M 38.91 61.53 A 16 16 0 0 1 42.88 35.67" stroke="#F0047F"/>
    <path d="M 42.88 35.67 A 16 16 0 0 1 64.27 57.23" stroke="#F73563"/>
    <path d="M 64.27 57.23 A 16 16 0 0 1 56.39 64.67" stroke="#9AD9DD"/>
  </g>
  <g stroke-width="17px" fill="none">
    <path d="M 22.27 78.83 A 40 40 0 0 1 11.72 61.6" stroke="#DA037F"/>
    <path d="M 11.72 61.6 A 40 40 0 0 1 10.93 41.41" stroke="#F444A9"/>
    <path d="M 10.93 41.41 A 40 40 0 0 1 20.11 23.41" stroke="#F768A9"/>
    <path d="M 20.11 23.41 A 40 40 0 0 1 32.21 14.17" stroke="#F99BC1"/>
    <path d="M 32.21 14.17 A 40 40 0 0 1 75.4 19.1" stroke="#F74370"/>
    <path d="M 75.4 19.1 A 40 40 0 0 1 89.73 45.34" stroke="#FDB462"/>
    <path d="M 89.73 45.34 A 40 40 0 0 1 85.68 68.08" stroke="#FEB342"/>
    <path d="M 85.68 68.08 A 40 40 0 0 1 76.76 79.73" stroke="#99C08D"/>
    <path d="M 76.76 79.73 A 40 40 0 0 1 69.01 85.19" stroke="#67C5CA"/>
    <path d="M 69.01 85.19 A 40 40 0 0 1 65.98 86.67" stroke="#F2F91D"/>
  </g>
</svg>
